<svg xmlns="http://www.w3.org/2000/svg" viewBox="0 0 256 256" width="256" height="256" fill="none">
  <!-- Dark Auggie icon (Glassmorphism plate + Augment green core) -->
  <defs>
    <!-- Background gradient -->
    <linearGradient id="bg" x1="0" y1="0" x2="1" y2="1">
      <stop offset="0" stop-color="#0B0B0C"/>
      <stop offset="1" stop-color="#181716"/>
    </linearGradient>

    <!-- Glass fill and strokes -->
    <linearGradient id="glassFill" x1="0" y1="0" x2="0" y2="1">
      <stop offset="0" stop-color="#FFFFFF" stop-opacity="0.10"/>
      <stop offset="1" stop-color="#FFFFFF" stop-opacity="0.06"/>
    </linearGradient>
    <linearGradient id="glassStrokeTop" x1="0" y1="0" x2="0" y2="1">
      <stop offset="0" stop-color="#FFFFFF" stop-opacity="0.45"/>
      <stop offset="1" stop-color="#FFFFFF" stop-opacity="0.10"/>
    </linearGradient>
    <linearGradient id="glassStrokeBottom" x1="0" y1="1" x2="0" y2="0">
      <stop offset="0" stop-color="#000000" stop-opacity="0.35"/>
      <stop offset="1" stop-color="#000000" stop-opacity="0.00"/>
    </linearGradient>

    <!-- Specular highlight -->
    <radialGradient id="spec" cx="0" cy="0" r="1" gradientUnits="userSpaceOnUse" gradientTransform="translate(64 48) rotate(45) scale(120 80)">
      <stop offset="0" stop-color="#FFFFFF" stop-opacity="0.45"/>
      <stop offset="1" stop-color="#FFFFFF" stop-opacity="0"/>
    </radialGradient>

    <!-- Core blade gradient and glow -->
    <linearGradient id="blade" x1="128" y1="24" x2="128" y2="210">
      <stop offset="0" stop-color="#3D855E"/>
      <stop offset="1" stop-color="#2F6A4A"/>
    </linearGradient>
    <filter id="glow" x="-50%" y="-50%" width="200%" height="200%">
      <feGaussianBlur stdDeviation="6" result="blur"/>
      <feMerge>
        <feMergeNode in="blur"/>
        <feMergeNode in="SourceGraphic"/>
      </feMerge>
    </filter>

    <!-- Subtle drop shadow for the glass plate -->
    <filter id="glassShadow" x="-20%" y="-20%" width="140%" height="140%">
      <feDropShadow dx="0" dy="2" stdDeviation="6" flood-color="#000" flood-opacity="0.35"/>
    </filter>
  </defs>

  <!-- Background -->
  <rect x="8" y="8" width="240" height="240" rx="24" fill="url(#bg)"/>

  <!-- Glass plate -->
  <g filter="url(#glassShadow)">
    <rect x="8" y="8" width="240" height="240" rx="24" fill="url(#glassFill)"/>
    <!-- Top light stroke -->
    <rect x="8.75" y="8.75" width="238.5" height="238.5" rx="23.25" fill="none" stroke="url(#glassStrokeTop)" stroke-width="1.5"/>
    <!-- Bottom soft shadow stroke -->
    <rect x="8.5" y="8.5" width="239" height="239" rx="23.5" fill="none" stroke="url(#glassStrokeBottom)" stroke-width="1.5"/>
    <!-- Specular highlight wash -->
    <ellipse cx="86" cy="58" rx="110" ry="70" fill="url(#spec)"/>
  </g>

  <!-- Sith visor silhouette forming an A -->
  <path d="M128 36 L206 200 H176 L156 160 H100 L80 200 H50 L128 36 Z" fill="#0E0E0E" fill-opacity="0.92" stroke="#222" stroke-opacity="0.7" stroke-width="2"/>

  <!-- Inner mask lines to suggest Vader-like helmet -->
  <path d="M128 52 L172 146 H152 L128 98 L104 146 H84 L128 52 Z" fill="#141414" fill-opacity="0.95"/>

  <!-- Augment green energy blade / core -->
  <path d="M124 70 L132 70 L132 198 C132 203 128 208 128 208 C128 208 124 203 124 198 Z" fill="url(#blade)" filter="url(#glow)"/>

  <!-- Side vents / code brackets -->
  <path d="M56 118 L76 126 L76 134 L56 142" fill="#0F0F10" fill-opacity="0.9"/>
  <path d="M200 118 L180 126 L180 134 L200 142" fill="#0F0F10" fill-opacity="0.9"/>

  <!-- Subtle diagonal reflections over the glass -->
  <path d="M28 42 L228 210" stroke="#FFFFFF" stroke-opacity="0.06"/>
  <path d="M32 48 L232 216" stroke="#FFFFFF" stroke-opacity="0.04"/>

  <!-- Tiny star field hint -->
  <circle cx="44" cy="44" r="1.2" fill="#3D855E" opacity="0.8"/>
  <circle cx="220" cy="52" r="1" fill="#3D855E" opacity="0.65"/>
  <circle cx="212" cy="212" r="1.1" fill="#3D855E" opacity="0.5"/>
</svg>
