<svg xmlns="http://www.w3.org/2000/svg" viewBox="0 0 256 256" width="256" height="256" fill="none">
  <!-- Dark Auggie icon: Sith-helmed A with Augment green core -->
  <defs>
    <linearGradient id="g1" x1="0" y1="0" x2="1" y2="1">
      <stop offset="0" stop-color="#0B0B0B"/>
      <stop offset="1" stop-color="#1C1917"/>
    </linearGradient>
    <linearGradient id="blade" x1="128" y1="24" x2="128" y2="210">
      <stop offset="0" stop-color="#3D855E"/>
      <stop offset="1" stop-color="#2F6A4A"/>
    </linearGradient>
    <filter id="glow" x="-50%" y="-50%" width="200%" height="200%">
      <feGaussianBlur stdDeviation="6" result="blur"/>
      <feMerge>
        <feMergeNode in="blur"/>
        <feMergeNode in="SourceGraphic"/>
      </feMerge>
    </filter>
  </defs>

  <!-- Background plate -->
  <rect x="8" y="8" width="240" height="240" rx="24" fill="url(#g1)"/>
  <rect x="8" y="8" width="240" height="240" rx="24" stroke="#0F0F10" stroke-width="2"/>

  <!-- Sith visor silhouette forming an A -->
  <path d="M128 36 L206 200 H176 L156 160 H100 L80 200 H50 L128 36 Z" fill="#0E0E0E" stroke="#222" stroke-width="2"/>

  <!-- Inner mask lines to suggest Vader-like helmet -->
  <path d="M128 52 L172 146 H152 L128 98 L104 146 H84 L128 52 Z" fill="#121212"/>

  <!-- Augment green energy blade / core -->
  <path d="M124 70 L132 70 L132 198 C132 203 128 208 128 208 C128 208 124 203 124 198 Z" fill="url(#blade)" filter="url(#glow)"/>

  <!-- Side vents / code brackets -->
  <path d="M56 118 L76 126 L76 134 L56 142" fill="#101010"/>
  <path d="M200 118 L180 126 L180 134 L200 142" fill="#101010"/>

  <!-- Subtle highlights -->
  <path d="M128 36 L206 200" stroke="#2A2A2A" stroke-opacity="0.35"/>
  <path d="M128 36 L50 200" stroke="#2A2A2A" stroke-opacity="0.35"/>

  <!-- Tiny star field hint -->
  <circle cx="44" cy="44" r="1.2" fill="#3D855E" opacity="0.8"/>
  <circle cx="220" cy="52" r="1" fill="#3D855E" opacity="0.65"/>
  <circle cx="212" cy="212" r="1.1" fill="#3D855E" opacity="0.5"/>
</svg>

